<?xml version="1.0" standalone="no"?>
<!DOCTYPE svg PUBLIC "-//W3C//DTD SVG 20010904//EN"
 "http://www.w3.org/TR/2001/REC-SVG-20010904/DTD/svg10.dtd">
<svg version="1.0" xmlns="http://www.w3.org/2000/svg"
 width="400.000000pt" height="400.000000pt" viewBox="0 0 400.000000 400.000000"
 preserveAspectRatio="xMidYMid meet">
<metadata>
Created by potrace 1.14, written by Peter Selinger 2001-2017
</metadata>
<g transform="translate(0.000000,400.000000) scale(0.100000,-0.100000)"
fill="#000000" stroke="none">
<path d="M75 3953 c3 -27 9 -64 12 -83 7 -43 8 -49 17 -135 4 -38 11 -90 16
-115 4 -25 14 -85 20 -135 16 -127 30 -195 40 -195 5 0 7 30 4 68 -4 57 -10
105 -29 252 -1 14 -12 100 -24 192 -24 186 -27 198 -48 198 -11 0 -13 -10 -8
-47z"/>
<path d="M150 3979 c0 -12 4 -18 11 -13 8 5 10 -3 7 -24 -2 -17 -1 -29 3 -27
4 3 10 -21 14 -53 4 -31 13 -82 21 -112 13 -47 39 -169 74 -346 5 -22 22 -96
39 -165 29 -119 47 -204 77 -354 29 -140 29 -142 36 -119 7 26 5 48 -22 229
-20 141 -24 164 -54 330 -9 50 -19 104 -22 120 -4 30 -11 64 -40 220 -8 44
-17 94 -19 110 -3 17 -7 48 -10 70 -3 22 -11 66 -17 98 l-12 57 -43 0 c-37 0
-43 -3 -43 -21z"/>
<path d="M3970 3842 c0 -5 7 -16 16 -23 14 -12 16 -11 13 5 -4 20 -29 35 -29
18z"/>
<path d="M3980 3771 c13 -9 13 -11 -2 -11 -10 0 -18 -4 -18 -10 0 -5 9 -10 21
-10 24 0 23 31 -1 37 -13 4 -13 3 0 -6z"/>
<path d="M1256 3714 c-9 -8 -34 -15 -56 -16 -22 0 -40 -4 -40 -9 0 -5 -13 -9
-29 -9 -17 0 -33 -4 -36 -10 -3 -5 -17 -10 -30 -10 -14 0 -29 -8 -35 -20 -9
-17 -7 -20 16 -26 l27 -7 -36 -19 c-21 -10 -37 -26 -37 -34 0 -9 6 -14 13 -11
46 19 52 20 29 2 -33 -24 -80 -36 -86 -22 -2 7 -5 4 -5 -5 -1 -10 -8 -18 -16
-18 -8 0 -22 -11 -31 -25 -16 -25 -56 -166 -53 -188 1 -7 -1 -19 -4 -27 -3 -8
-11 -35 -17 -60 -7 -25 -17 -51 -22 -58 -6 -7 -12 -29 -13 -50 -1 -20 -8 -65
-15 -98 -13 -58 -12 -63 8 -89 22 -28 30 -75 12 -75 -5 0 -14 8 -19 18 -8 12
-9 4 -4 -30 6 -47 5 -48 -21 -48 -33 0 -98 -32 -151 -75 -64 -52 -104 -69
-131 -56 -23 10 -168 3 -364 -18 -47 -6 -91 -10 -97 -10 -10 -1 -13 -199 -13
-955 l0 -954 33 -11 c17 -6 37 -11 42 -12 6 -1 26 -9 46 -20 20 -10 39 -16 41
-13 3 2 11 -2 18 -11 7 -8 19 -15 28 -15 20 0 149 -45 219 -76 49 -21 69 -24
185 -23 72 0 153 4 180 9 45 9 52 7 97 -20 57 -35 65 -36 98 -10 14 11 31 20
37 20 6 0 18 9 26 21 8 11 23 30 33 41 9 12 17 24 17 28 0 4 11 13 25 20 14 7
25 17 25 22 0 13 43 68 53 68 5 0 23 10 40 22 45 32 98 58 120 58 10 0 32 -14
48 -31 26 -28 29 -38 28 -93 0 -60 -27 -154 -42 -148 -9 3 -57 -52 -57 -65 0
-13 -64 -73 -78 -73 -7 0 -20 -6 -28 -12 -39 -34 -61 -47 -116 -76 -16 -7 -28
-17 -28 -21 0 -4 -6 -15 -13 -25 -12 -16 -16 -17 -35 -5 -26 16 -33 10 -37
-33 -2 -18 -3 -36 -4 -40 -1 -5 -8 -8 -16 -8 -11 0 -14 7 -9 25 4 15 2 25 -4
25 -6 0 -17 3 -25 6 -11 4 -16 -2 -19 -22 -6 -56 -54 -54 -130 8 -34 27 -49
16 -20 -15 12 -13 22 -28 22 -34 0 -7 14 -34 31 -62 17 -27 32 -61 33 -75 l1
-26 1510 0 c1315 1 1508 2 1491 15 -10 8 -23 12 -27 9 -5 -3 -9 2 -9 10 0 9
-7 16 -16 16 -19 0 -68 37 -57 43 4 2 22 -4 38 -14 31 -19 94 -49 102 -49 17
0 -27 33 -65 51 -26 11 -49 25 -53 31 -9 15 -65 -14 -61 -32 2 -10 -3 -9 -17
4 -24 22 -28 38 -6 30 8 -4 15 -1 15 5 0 7 -13 9 -37 5 -29 -4 -43 -1 -58 13
-11 11 -26 18 -32 16 -7 -3 -22 2 -33 10 -12 8 -29 13 -39 10 -9 -2 -23 3 -30
11 -8 9 -22 14 -35 11 -14 -4 -25 1 -34 16 -13 20 -12 21 17 14 40 -9 91 3 91
21 0 8 7 14 16 14 14 0 44 22 44 33 0 3 -18 8 -41 12 -30 5 -38 10 -30 18 21
21 11 28 -11 7 -31 -28 -58 -25 -98 13 -19 18 -43 36 -53 40 -27 10 -33 38
-12 53 25 18 33 18 38 -4 3 -12 5 -11 6 6 1 33 81 142 103 142 26 0 22 -14 -7
-30 -14 -7 -25 -22 -25 -33 0 -10 -11 -41 -25 -69 -14 -27 -25 -55 -24 -61 0
-7 5 -2 11 10 6 13 15 23 20 23 4 0 8 8 8 18 1 32 50 74 50 42 0 -5 -7 -10
-15 -10 -10 0 -15 -9 -14 -27 l0 -28 10 25 c10 24 11 24 25 6 13 -19 14 -18
14 11 0 17 3 39 7 49 4 12 3 15 -5 10 -7 -4 -16 -5 -22 -1 -13 8 0 37 15 31 9
-3 11 2 7 16 -4 17 -2 19 18 13 15 -5 20 -4 16 4 -4 6 -3 19 3 29 6 12 4 34
-8 72 -10 30 -23 78 -30 105 -7 28 -30 94 -52 148 -22 54 -37 102 -34 107 11
18 100 61 139 66 23 4 51 13 63 20 19 12 22 12 17 0 -4 -10 4 -16 24 -21 17
-3 33 -13 36 -21 3 -8 12 -14 21 -14 9 0 16 -10 17 -27 4 -75 3 -81 -8 -76 -6
2 -14 -8 -17 -24 -6 -33 1 -46 9 -16 6 21 30 33 69 33 12 0 28 12 38 30 10 16
24 30 31 30 7 0 21 6 32 14 17 13 14 14 -24 5 -66 -14 -81 3 -38 46 25 25 25
38 1 97 -4 11 0 18 13 22 26 9 52 -3 45 -20 -3 -8 5 -18 21 -25 14 -7 27 -19
29 -28 3 -9 5 -5 6 9 1 15 -7 30 -19 38 -12 7 -18 17 -14 23 4 7 11 6 20 -2
11 -9 14 -7 14 10 0 17 -6 21 -29 21 -17 0 -33 5 -36 10 -3 6 -15 10 -26 10
-17 0 -19 8 -19 73 -1 65 -2 70 -15 53 -8 -11 -15 -31 -15 -45 0 -21 2 -23 10
-11 8 13 10 12 10 -2 0 -10 -4 -18 -10 -18 -5 0 -9 -8 -8 -17 1 -10 0 -29 -1
-43 -1 -19 -3 -22 -10 -11 -5 8 -7 45 -4 82 7 77 -5 125 -17 74 -4 -16 -8 -48
-9 -69 -1 -55 -10 -40 -16 29 -6 72 -12 80 -21 26 -4 -22 -11 -41 -16 -41 -5
0 -16 -7 -24 -15 -9 -8 -11 -15 -5 -15 18 0 13 -29 -9 -52 -16 -17 -23 -19
-32 -10 -14 14 -38 16 -38 3 0 -5 9 -13 20 -16 11 -3 20 -11 20 -16 0 -6 -6
-6 -18 0 -10 5 -24 6 -31 2 -11 -7 -11 -9 0 -13 22 -7 -29 -61 -81 -85 l-45
-21 -5 48 c-5 44 -29 85 -64 111 -5 4 -6 22 -3 41 6 43 7 42 -74 106 -37 29
-69 59 -73 67 -3 8 -16 15 -30 15 -14 0 -28 5 -32 11 -4 7 -26 8 -63 4 -61 -7
-73 -1 -83 41 -5 18 0 21 43 23 27 1 49 -2 49 -7 0 -5 26 -10 58 -11 33 -1 73
-6 90 -11 31 -8 32 -7 33 21 1 16 3 34 4 39 1 6 3 49 4 98 1 80 4 90 29 118
47 54 72 88 72 97 0 4 -18 -13 -41 -40 -23 -26 -45 -52 -50 -57 -5 -6 -9 16
-9 55 0 39 4 59 9 51 5 -9 8 -5 8 15 0 15 3 37 7 48 6 15 5 17 -3 5 -16 -23
-18 -10 -12 80 l6 85 30 3 c17 2 40 10 53 18 12 8 27 12 32 9 6 -3 10 1 10 9
0 9 -6 16 -12 16 -9 0 -8 4 2 10 8 5 36 10 63 10 43 0 47 2 47 24 0 14 -5 28
-10 31 -6 4 -8 11 -5 16 10 16 23 10 28 -13 2 -13 5 7 6 45 1 67 1 67 -26 68
-53 2 -77 -3 -90 -19 -11 -15 -13 -13 -13 13 l-2 30 -10 -27 c-10 -30 -23 -36
-31 -15 -3 6 -6 2 -6 -10 -1 -12 -4 -24 -8 -26 -9 -6 -6 355 6 848 5 182 5
333 1 338 -3 4 -353 10 -776 14 l-769 6 46 -54 c25 -30 54 -70 64 -89 10 -19
22 -37 26 -40 5 -3 11 -28 14 -55 24 -211 29 -262 29 -352 1 -88 -2 -105 -20
-130 -30 -40 -50 -41 -52 -1 -1 29 -7 63 -12 78 -1 3 -1 15 0 28 1 14 -4 22
-14 22 -9 0 -16 5 -16 11 0 5 -4 8 -9 5 -5 -3 -12 5 -15 19 -7 26 -105 137
-107 120 -1 -6 -3 -23 -5 -40 -8 -62 -11 -176 -4 -180 12 -8 -2 -65 -16 -65
-8 0 -41 11 -74 25 -36 15 -79 25 -108 25 -48 0 -49 -1 -60 -39 -7 -21 -12
-44 -12 -51 0 -19 38 -62 45 -50 3 6 12 7 18 3 7 -4 18 -8 25 -9 8 -2 31 -14
53 -28 47 -31 59 -32 59 -6 0 20 25 38 36 27 11 -11 -17 -122 -45 -175 -49
-95 -140 -225 -171 -245 -40 -25 -72 -19 -81 16 -6 22 -4 27 11 27 10 0 21 4
25 9 8 13 -15 25 -50 27 -65 3 -177 60 -248 127 -23 21 -51 40 -63 43 -13 3
-30 17 -39 31 -13 20 -19 22 -31 12 -8 -6 -14 -22 -14 -35 0 -31 -16 -39 -24
-12 -9 36 24 89 63 102 19 6 36 17 39 24 2 7 -2 10 -11 7 -21 -9 -69 61 -79
114 -16 84 -21 184 -9 177 6 -4 11 -2 11 3 0 19 40 12 63 -11 13 -13 25 -23
27 -23 14 -1 51 -35 46 -43 -3 -5 0 -16 7 -25 15 -20 67 -34 67 -18 0 6 -4 11
-8 11 -5 0 -9 7 -9 15 0 11 10 15 38 13 20 -2 35 -6 32 -10 -2 -5 -1 -14 4
-20 4 -7 8 -17 8 -23 0 -10 37 -22 71 -24 25 -1 94 60 94 84 0 19 -40 75 -53
75 -5 0 -18 11 -29 25 -20 26 -44 41 -120 77 -76 35 -57 61 40 58 65 -3 114
16 110 43 -2 11 -11 25 -21 31 -11 6 -36 27 -56 46 -21 19 -48 44 -62 56 -29
25 -79 86 -79 97 0 16 17 6 29 -17 7 -13 28 -30 46 -39 33 -16 34 -16 32 6 -1
12 -12 36 -23 52 -12 17 -29 44 -37 62 -15 27 -15 32 -2 37 18 6 59 -30 50
-44 -4 -6 -1 -10 5 -10 6 0 9 -4 6 -9 -9 -14 25 -47 62 -61 39 -15 54 -6 24
15 -40 29 -50 44 -45 69 3 15 1 26 -5 26 -6 0 -17 18 -23 40 -7 22 -18 40 -26
40 -7 0 -13 5 -13 10 0 6 -10 10 -22 11 -19 1 -18 2 7 10 16 4 40 6 53 2 18
-4 23 -2 20 8 -3 8 -25 19 -51 24 -25 6 -49 13 -53 17 -14 15 43 25 126 23 79
-3 82 -2 46 9 -21 7 -44 20 -51 29 -16 22 -88 23 -109 1z m-126 -71 c0 -5 -5
-15 -10 -23 -8 -12 -10 -11 -10 8 0 12 5 22 10 22 6 0 10 -3 10 -7z m-30 -233
c0 -5 -7 -10 -16 -10 -8 0 -12 5 -9 10 3 6 10 10 16 10 5 0 9 -4 9 -10z m-47
-40 c3 -11 1 -20 -4 -20 -5 0 -9 9 -9 20 0 11 2 20 4 20 2 0 6 -9 9 -20z
m1874 -186 c-3 -3 -12 -4 -19 -1 -8 3 -5 6 6 6 11 1 17 -2 13 -5z m173 -64 c0
-5 -5 -10 -11 -10 -5 0 -7 5 -4 10 3 6 8 10 11 10 2 0 4 -4 4 -10z m-160 -254
c0 -9 -30 -14 -35 -6 -4 6 3 10 14 10 12 0 21 -2 21 -4z m-66 -88 c-8 -29 -10
-31 -23 -23 -8 4 -8 12 -1 26 15 27 33 24 24 -3z m-1094 -118 c0 -5 -5 -10
-11 -10 -5 0 -7 5 -4 10 3 6 8 10 11 10 2 0 4 -4 4 -10z m-1099 -73 c-27 -48
-30 -59 -25 -113 3 -32 10 -79 14 -104 5 -27 5 -49 -1 -54 -5 -6 -9 -2 -9 11
0 11 -6 26 -14 32 -7 6 -19 47 -26 91 -11 71 -10 86 4 124 9 24 27 48 39 54
45 22 49 13 18 -41z m2317 -23 c4 -29 -28 -41 -45 -18 -10 13 -10 21 -1 31 16
19 42 12 46 -13z m-10 -56 c-6 -18 -28 -21 -28 -4 0 9 7 16 16 16 9 0 14 -5
12 -12z m-148 -8 c0 -5 -4 -10 -10 -10 -5 0 -10 5 -10 10 0 6 5 10 10 10 6 0
10 -4 10 -10z m-1704 -64 c3 -13 1 -33 -5 -44 -8 -16 -5 -24 22 -48 42 -39
108 -74 140 -74 24 0 83 38 62 40 -56 6 -115 46 -115 77 0 17 12 16 47 -2 55
-29 108 -48 131 -46 18 2 22 -3 22 -23 0 -14 4 -26 9 -26 14 0 -5 -69 -25 -91
-9 -10 -22 -19 -29 -19 -6 0 -18 -12 -25 -26 -21 -38 -89 -74 -135 -71 -42 2
-75 22 -75 45 0 7 -4 10 -10 7 -5 -3 -21 2 -36 11 -14 10 -40 25 -57 35 -27
14 -32 23 -33 55 0 22 -4 47 -9 57 -8 19 9 47 30 47 23 0 47 38 45 72 -3 47
-2 48 20 48 12 0 22 -9 26 -24z m1869 -15 c3 -6 -3 -15 -14 -21 -21 -11 -37 2
-26 20 8 13 32 13 40 1z m-5 -61 c0 -13 -7 -20 -20 -20 -19 0 -27 20 -13 33
13 14 33 6 33 -13z m343 -37 c-5 -13 -2 -15 16 -10 18 4 21 2 16 -14 -6 -17
-1 -19 57 -21 35 0 73 0 85 1 l23 2 -24 -26 c-18 -19 -30 -24 -48 -20 -13 3
-50 7 -82 8 -35 2 -61 8 -64 15 -2 8 -10 9 -20 3 -9 -4 -40 -11 -69 -14 -29
-3 -64 -13 -78 -23 -22 -14 -25 -14 -25 -1 0 8 4 17 9 19 13 5 18 32 6 38 -6
3 -14 -10 -20 -27 -6 -24 -15 -33 -30 -33 -44 0 -63 59 -26 82 10 6 17 18 14
25 -4 10 22 13 131 13 122 0 135 -2 129 -17z m-289 -5 c-3 -5 -9 -6 -14 -3 -5
3 -16 -2 -25 -12 -16 -16 -16 -17 4 -25 11 -4 21 -12 21 -19 0 -6 -7 -8 -16
-5 -9 3 -22 6 -29 6 -9 0 -13 10 -12 29 1 16 4 28 7 26 3 -1 14 1 25 5 26 9
45 9 39 -2z m-301 -25 c-7 -2 -19 -2 -25 0 -7 3 -2 5 12 5 14 0 19 -2 13 -5z
m208 -20 c-8 -15 -10 -15 -11 -2 0 17 10 32 18 25 2 -3 -1 -13 -7 -23z m-308
10 c-7 -2 -19 -2 -25 0 -7 3 -2 5 12 5 14 0 19 -2 13 -5z m-213 -24 c-25 -4
-67 -7 -95 -7 l-50 1 50 7 c28 4 70 7 95 7 l45 0 -45 -8z m354 -29 c9 0 16 -4
16 -10 0 -5 -11 -10 -24 -10 -13 0 -26 -5 -28 -12 -6 -18 -138 -8 -138 12 0
15 25 27 49 24 13 -3 29 0 36 6 6 5 16 6 20 2 5 -4 5 1 2 11 -6 17 -4 16 22
-2 16 -12 36 -21 45 -21z m-709 0 c-83 -13 -157 -18 -148 -9 9 8 70 15 148 16
l50 1 -50 -8z m-205 -17 c0 -5 -12 -8 -27 -8 -16 0 -61 -4 -100 -8 -45 -4 -73
-3 -73 2 0 9 40 14 158 19 23 1 42 -1 42 -5z m1256 -22 c8 6 14 7 18 0 4 -5 2
-12 -3 -16 -15 -9 -62 6 -55 17 4 6 10 6 17 -1 7 -7 14 -7 23 0z m-771 -21 c4
-6 -15 -10 -52 -9 -51 1 -54 2 -23 9 52 11 68 11 75 0z m945 -10 c14 -10 22
-21 19 -24 -4 -4 -108 -17 -269 -32 -109 -10 -576 -62 -715 -79 -60 -8 -171
-16 -245 -20 -74 -3 -184 -8 -245 -11 l-110 -6 -2 23 c0 13 -9 50 -19 82 -11
37 -14 61 -8 67 6 6 36 7 72 4 l62 -7 0 -43 c0 -49 10 -55 75 -48 22 3 109 6
193 7 88 1 156 6 160 12 4 6 45 10 92 10 47 -1 87 2 90 6 3 4 30 8 60 10 30 1
60 6 65 10 6 4 20 8 30 8 11 0 47 6 80 14 38 8 71 10 90 5 18 -5 65 -4 115 3
47 6 119 11 160 11 41 0 91 3 110 8 61 14 113 11 140 -10z m-1426 -206 l24
-27 48 17 c58 20 142 21 181 2 15 -7 51 -24 78 -37 28 -13 74 -47 102 -76 40
-40 60 -53 82 -53 17 0 33 5 37 11 12 20 113 59 152 59 21 0 46 -6 57 -14 11
-7 32 -16 47 -20 15 -3 34 -13 43 -22 15 -15 24 -15 113 -1 53 8 115 15 137
16 22 1 48 4 58 7 9 3 17 1 17 -5 0 -6 -3 -11 -7 -11 -24 0 -253 -30 -276 -35
-15 -4 -27 -11 -27 -15 0 -5 -24 -15 -53 -24 -72 -21 -116 -59 -123 -108 -4
-21 -12 -42 -18 -46 -14 -8 -66 -9 -66 -1 0 4 -11 6 -25 5 -24 -1 -25 -4 -20
-39 4 -23 2 -43 -5 -52 -6 -7 -10 -19 -9 -27 2 -7 0 -23 -5 -35 -6 -19 -10
-21 -27 -10 -23 15 -24 25 -2 49 14 16 14 18 0 18 -8 0 -33 -17 -55 -37 -66
-64 -124 -113 -133 -113 -18 0 -8 -22 31 -71 22 -28 40 -58 40 -66 0 -13 3
-13 15 -3 29 24 45 4 45 -53 0 -34 5 -59 14 -66 10 -9 15 -8 19 3 12 31 101
136 116 137 9 0 24 2 34 4 23 4 22 -10 -9 -130 -26 -100 -28 -184 -8 -282 7
-36 -10 -47 -21 -13 -5 15 -15 20 -39 20 -35 0 -57 13 -75 45 -9 16 -10 -5 -6
-90 2 -60 7 -137 11 -169 l5 -59 -36 6 c-33 5 -37 3 -49 -23 -9 -23 -15 -27
-24 -18 -9 9 -16 7 -32 -7 -27 -24 -25 -38 8 -72 43 -44 70 -123 42 -123 -5 0
-10 -6 -10 -14 0 -15 -49 -36 -84 -36 -12 0 -33 11 -48 25 -28 26 -48 32 -48
15 0 -18 -15 -11 -54 25 -22 20 -35 39 -31 46 4 6 7 30 7 54 -1 27 4 48 13 55
8 7 15 23 15 36 0 12 5 35 10 50 6 15 11 43 12 63 1 20 6 39 11 43 10 6 0 53
-24 116 -10 25 -29 30 -29 8 0 -24 -18 -28 -45 -10 -14 9 -42 18 -62 19 -21 1
-39 8 -41 14 -2 7 -16 25 -31 40 -83 87 -101 112 -101 137 0 22 2 25 15 14 8
-7 15 -18 15 -26 0 -11 29 -34 42 -34 2 0 4 29 4 65 1 40 -3 65 -9 65 -6 0 -1
9 10 19 16 16 36 20 92 20 40 0 83 -5 97 -11 19 -9 27 -8 42 5 10 9 40 19 67
22 28 3 59 9 70 12 19 6 18 7 -5 14 l-25 7 23 7 c18 6 20 10 11 21 -6 8 -17
14 -24 14 -6 0 -26 7 -43 16 -44 22 -66 15 -70 -21 -4 -38 -15 -49 -41 -40
-25 8 -29 45 -4 45 34 0 1 13 -44 17 -27 3 -51 8 -55 12 -4 3 -5 23 -1 44 8
49 33 50 33 1 0 -25 4 -34 13 -30 6 2 32 10 56 17 38 11 41 13 23 20 -11 4
-26 17 -32 29 -9 17 -7 24 14 43 19 17 23 29 18 52 -7 39 -30 75 -48 75 -8 0
-14 9 -14 20 0 11 -4 20 -8 20 -5 0 -17 17 -26 38 -16 35 -19 37 -56 34 -40
-4 -40 -4 -40 32 0 42 -20 41 -36 -3 -8 -19 -20 -30 -41 -34 -17 -3 -43 -9
-58 -13 -24 -6 -27 -4 -22 10 4 9 2 16 -4 16 -6 0 -7 6 -2 13 12 19 10 40 -7
61 -13 17 -13 18 0 11 13 -8 13 -6 2 7 -12 14 -10 17 15 20 19 2 28 8 27 21
-1 9 2 17 6 17 9 0 7 26 -3 36 -4 4 -2 13 5 21 11 13 5 27 -13 29 -5 1 -12 2
-15 3 -4 0 1 12 10 26 9 13 16 30 16 37 0 17 41 55 71 67 39 16 57 12 83 -15z
m611 17 c3 -5 1 -13 -5 -16 -15 -9 -43 3 -35 15 8 13 32 13 40 1z m600 -183
c-3 -106 -8 -195 -11 -197 -2 -2 -4 81 -4 186 0 169 3 203 17 203 3 0 2 -87
-2 -192z m-715 51 c0 -27 -4 -48 -8 -45 -4 2 -7 17 -6 33 1 15 3 36 3 46 1 9
3 17 6 17 3 0 5 -23 5 -51z m-1450 12 c0 -4 12 -6 26 -3 27 5 27 5 8 -15 -16
-17 -22 -18 -38 -8 -26 15 -32 35 -12 35 9 0 16 -4 16 -9z m725 -141 c-3 -5
-11 -10 -16 -10 -6 0 -7 5 -4 10 3 6 11 10 16 10 6 0 7 -4 4 -10z m1302 -58
c12 -7 30 -24 41 -39 24 -35 58 -148 67 -228 4 -33 10 -64 15 -70 4 -5 19 -60
33 -120 14 -61 40 -153 58 -205 17 -52 38 -120 45 -150 16 -65 18 -150 4 -150
-5 0 -10 9 -10 20 0 10 -6 34 -14 52 -7 18 -28 71 -46 118 -18 47 -52 126 -75
175 -24 50 -50 115 -59 145 -14 52 -18 56 -58 68 -24 8 -68 16 -98 18 -66 6
-131 24 -124 35 2 4 26 11 52 14 101 14 162 50 187 110 19 44 8 82 -39 131
-33 34 -47 42 -65 37 -23 -6 -23 -6 -3 -22 46 -37 53 -103 12 -114 -11 -3 -30
3 -44 14 -13 10 -30 19 -37 19 -16 0 -59 40 -59 54 0 6 14 24 30 39 17 16 30
33 30 38 0 26 114 34 157 11z m-1382 -82 c-3 -5 -14 -10 -23 -10 -15 0 -15 2
-2 10 20 13 33 13 25 0z m282 -47 c2 -49 -19 -80 -51 -80 -31 0 -59 -21 -52
-39 3 -7 1 -16 -5 -20 -6 -3 -8 -12 -5 -20 7 -17 4 -17 -31 -2 -40 17 -63 38
-63 59 0 23 22 35 82 43 32 5 45 11 42 20 -6 15 48 76 68 76 9 0 14 -13 15
-37z m55 15 c11 -13 18 -33 16 -48 -3 -29 -21 -32 -26 -4 -2 10 -10 24 -18 31
-10 7 -12 13 -4 18 5 3 8 11 5 16 -12 18 8 9 27 -13z m686 -34 c26 -18 29 -61
7 -90 -14 -18 -14 -18 -15 6 0 14 -4 30 -8 36 -11 17 -48 34 -73 34 -22 0 -22
0 -3 15 25 19 64 19 92 -1z m662 -64 c0 -5 -4 -10 -10 -10 -5 0 -10 5 -10 10
0 6 5 10 10 10 6 0 10 -4 10 -10z m70 -95 c0 -8 -7 -15 -15 -15 -16 0 -20 12
-8 23 11 12 23 8 23 -8z m-943 -162 c-3 -10 -5 -2 -5 17 0 19 2 27 5 18 2 -10
2 -26 0 -35z m1396 23 c15 -1 27 -6 27 -12 0 -7 -20 -9 -57 -7 -72 5 -83 9
-83 27 0 11 7 12 43 3 23 -6 54 -11 70 -11z m-1002 -5 c49 -1 124 -54 166
-117 18 -27 53 -76 77 -109 25 -33 57 -92 71 -130 14 -39 32 -85 40 -102 45
-101 48 -105 67 -100 14 4 18 1 14 -11 -3 -9 -15 -55 -26 -102 -26 -105 -39
-122 -67 -86 -11 14 -23 23 -26 19 -4 -3 -30 4 -58 16 -80 35 -85 34 -140 -15
-27 -24 -54 -44 -59 -44 -6 0 -10 -7 -10 -16 0 -14 -39 22 -93 86 -31 37 -57
94 -57 124 0 17 -5 37 -11 43 -11 11 -30 73 -34 113 -1 14 -5 36 -9 49 -6 17
-2 31 14 53 16 22 19 33 11 41 -6 6 -11 19 -11 30 0 10 -4 16 -9 13 -11 -7
-21 17 -21 50 0 21 7 27 30 26 3 0 20 -3 38 -7 l34 -7 -17 29 c-8 15 -26 46
-40 68 -13 22 -24 45 -25 52 0 12 76 41 100 37 8 -1 31 -3 51 -3z m-1536 -93
c-4 -46 -9 -99 -10 -119 -12 -141 -26 -182 -68 -198 -13 -5 -28 -16 -35 -24
-16 -19 -63 -10 -69 14 -3 10 -9 17 -13 14 -4 -3 -13 2 -20 10 -14 17 -70 21
-70 5 0 -5 -5 -10 -10 -10 -6 0 -3 11 6 25 14 21 24 25 65 25 26 0 50 4 54 9
3 6 -9 7 -31 4 -27 -4 -35 -3 -30 5 4 7 16 12 27 12 22 0 23 4 8 31 -9 17 -2
29 47 82 31 34 76 92 100 130 24 37 47 67 50 67 4 0 3 -37 -1 -82z m483 -106
c2 -23 -1 -32 -12 -32 -11 0 -15 10 -14 35 2 44 22 41 26 -3z m-2 -104 c1 -15
6 -33 11 -40 6 -7 13 -22 17 -33 3 -11 3 2 1 28 -3 30 -1 46 5 42 6 -3 10 -13
10 -21 0 -8 5 -14 11 -14 6 0 8 -9 4 -22 -4 -15 -3 -18 2 -10 7 9 18 4 45 -20
20 -18 41 -43 47 -54 6 -12 13 -78 16 -148 5 -102 3 -131 -10 -156 -23 -45
-75 -100 -94 -100 -9 0 -22 -5 -27 -10 -8 -8 -15 -6 -24 5 -16 19 -30 19 -30
-1 0 -10 -5 -12 -12 -7 -7 4 -18 8 -23 9 -6 1 -28 10 -49 20 -33 16 -42 27
-57 74 -22 67 -23 89 -5 115 39 56 56 97 47 113 -7 12 -4 24 10 44 13 18 18
35 14 51 -5 17 -2 26 10 31 11 4 14 12 10 26 -5 14 -2 20 9 20 12 0 16 11 16
46 0 41 2 45 23 42 16 -2 22 -10 23 -30z m828 -42 c-3 -15 -8 -25 -11 -23 -2
3 -1 17 3 31 3 15 8 25 11 23 2 -3 1 -17 -3 -31z m-946 -91 c-4 -49 -9 -59
-44 -90 -55 -49 -82 -45 -97 14 -6 26 14 74 35 85 7 3 27 15 43 25 17 11 38
20 49 20 16 1 18 -5 14 -54z m1787 -112 c3 -13 2 -23 -3 -23 -11 0 -22 24 -22
48 0 21 15 5 25 -25z m-2539 -44 c9 -15 -40 -62 -61 -57 -15 3 -13 7 11 35 32
35 39 39 50 22z m2553 -29 c4 0 12 5 19 12 6 6 14 9 17 6 7 -7 -22 -63 -42
-79 -9 -8 -14 -9 -10 -2 9 14 -2 45 -14 37 -5 -3 -9 6 -9 20 0 26 23 42 28 19
2 -7 7 -13 11 -13z m-969 5 c-7 -8 -17 -15 -22 -15 -6 0 -5 7 2 15 7 8 17 15
22 15 6 0 5 -7 -2 -15z m144 -107 c44 -29 79 -81 72 -106 -11 -32 -39 -15 -66
40 -14 28 -33 56 -42 62 -10 6 -18 14 -18 18 0 14 19 9 54 -14z m738 -130 c-9
-9 -8 -16 5 -30 22 -24 8 -36 -16 -14 -16 15 -17 22 -8 46 7 20 15 26 21 20 7
-7 6 -14 -2 -22z m-2405 -235 c-27 -27 -41 -4 -15 24 20 21 23 22 26 8 2 -10
-3 -24 -11 -32z m2391 31 c21 -4 29 -11 25 -20 -6 -16 -43 -19 -43 -4 0 6 -6
10 -12 9 -27 -3 -48 1 -48 11 0 11 33 13 78 4z m172 -4 c26 -16 4 -21 -31 -6
-31 14 -32 15 -9 15 14 1 32 -3 40 -9z m217 -86 c-3 -3 -12 -4 -19 -1 -8 3 -5
6 6 6 11 1 17 -2 13 -5z m63 -14 c0 -5 -10 -10 -22 -10 -19 0 -20 2 -8 10 19
13 30 13 30 0z"/>
<path d="M3175 2321 c-28 -6 -28 -7 -8 -13 13 -4 27 0 34 8 6 8 10 13 8 13 -2
-1 -17 -4 -34 -8z"/>
<path d="M2580 1721 c0 -5 -14 -14 -31 -20 -19 -7 -28 -15 -23 -22 4 -8 3 -9
-5 -5 -14 9 -41 -11 -41 -30 0 -7 11 -25 25 -40 l24 -26 13 28 c6 16 20 40 29
54 23 35 33 70 20 70 -6 0 -11 -4 -11 -9z"/>
<path d="M1880 1610 c0 -6 7 -10 15 -10 8 0 15 2 15 4 0 2 -7 6 -15 10 -8 3
-15 1 -15 -4z"/>
<path d="M2200 1534 c-14 -36 -12 -47 6 -40 9 3 18 6 20 6 2 0 4 14 4 30 0 37
-17 39 -30 4z"/>
<path d="M2220 1175 c0 -2 14 -19 32 -37 19 -19 29 -25 25 -15 -4 10 -7 28 -7
40 0 18 -2 19 -11 7 -8 -11 -12 -12 -16 -2 -4 11 -23 17 -23 7z"/>
<path d="M2413 1013 c-41 -5 -42 -18 -4 -38 17 -8 36 -24 44 -36 14 -19 15
-18 18 25 3 32 0 47 -9 51 -8 3 -14 4 -15 3 -1 0 -17 -3 -34 -5z"/>
<path d="M1865 999 c-12 -18 3 -22 20 -5 14 14 14 16 1 16 -8 0 -18 -5 -21
-11z"/>
<path d="M2357 940 c3 -30 7 -57 9 -59 9 -10 3 85 -6 99 -6 10 -7 -3 -3 -40z"/>
<path d="M1877 953 c-4 -3 -7 -11 -7 -17 0 -6 5 -5 12 2 6 6 9 14 7 17 -3 3
-9 2 -12 -2z"/>
<path d="M1822 909 c2 -7 10 -15 17 -17 8 -3 12 1 9 9 -2 7 -10 15 -17 17 -8
3 -12 -1 -9 -9z"/>
<path d="M1911 848 c-7 -11 -7 -18 -1 -18 5 0 10 -8 10 -17 1 -17 1 -17 11 0
5 9 17 17 24 17 25 0 17 27 -9 32 -15 3 -27 -2 -35 -14z"/>
<path d="M2000 829 c0 -5 5 -7 10 -4 6 3 10 8 10 11 0 2 -4 4 -10 4 -5 0 -10
-5 -10 -11z"/>
<path d="M2847 1553 c-13 -13 -7 -53 8 -53 17 0 34 29 28 48 -5 13 -25 16 -36
5z"/>
<path d="M1145 959 c-10 -15 -2 -19 23 -12 12 3 19 9 16 14 -7 12 -31 11 -39
-2z"/>
<path d="M1045 830 c3 -5 14 -10 23 -10 15 0 15 2 2 10 -20 13 -33 13 -25 0z"/>
<path d="M3991 3684 c0 -11 3 -14 6 -6 3 7 2 16 -1 19 -3 4 -6 -2 -5 -13z"/>
<path d="M1536 3682 c-7 -12 39 -36 56 -29 9 4 6 8 -9 12 -13 4 -23 11 -23 16
0 11 -17 12 -24 1z"/>
<path d="M3925 3562 c-21 -17 -50 -132 -33 -132 4 0 8 -8 9 -17 0 -12 4 -8 11
10 11 31 34 36 43 8 3 -11 12 -22 21 -25 10 -4 13 -13 8 -31 -4 -15 -2 -25 5
-25 7 0 11 26 11 70 0 51 -4 70 -12 69 -37 -4 -41 1 -36 46 6 49 3 53 -27 27z"/>
<path d="M3872 3254 c-17 -18 -15 -44 4 -65 9 -10 18 -36 21 -58 3 -23 10 -41
16 -41 5 0 7 -13 3 -30 -3 -20 -2 -29 4 -25 6 4 13 -1 16 -9 3 -9 12 -16 19
-16 21 0 23 -32 4 -71 -20 -39 -14 -60 7 -31 12 15 15 15 24 2 8 -12 10 -11
10 7 0 12 -6 24 -12 26 -10 4 -10 6 0 6 9 1 12 29 12 106 0 104 0 105 -24 105
-13 0 -27 7 -30 16 -8 22 -8 24 7 24 8 0 22 9 32 20 18 19 18 22 2 37 -16 16
-17 16 -17 0 0 -9 -10 -22 -22 -28 -19 -10 -25 -8 -43 13 -17 20 -23 22 -33
12z"/>
<path d="M3792 3158 c-24 -24 -4 -88 28 -88 15 0 19 29 5 40 -8 7 -13 15 -11
19 2 3 1 14 -3 24 -5 14 -9 15 -19 5z"/>
<path d="M3857 2978 l-25 -42 23 -18 c13 -10 28 -18 33 -18 11 0 10 45 -1 56
-3 3 -2 17 3 30 16 41 -7 36 -33 -8z"/>
<path d="M3740 2995 c0 -7 5 -17 10 -20 6 -3 10 -21 10 -39 0 -17 5 -37 11
-43 6 -6 15 -26 19 -45 l8 -33 1 40 c0 22 1 47 3 55 3 20 -32 88 -49 94 -7 3
-13 -1 -13 -9z"/>
<path d="M3983 2820 c4 -31 2 -40 -9 -40 -8 0 -17 -6 -20 -14 -3 -8 -27 -17
-57 -21 -69 -10 -98 -27 -126 -76 -12 -19 2 -44 18 -34 9 5 9 10 0 21 -17 20
0 35 42 38 19 2 44 8 56 14 17 10 22 9 28 -5 5 -15 8 -15 15 -3 5 8 6 18 4 22
-6 9 10 11 19 2 9 -9 -24 -55 -34 -48 -5 3 -9 2 -8 -3 3 -13 -19 -60 -31 -68
-9 -6 -9 -9 0 -15 10 -6 10 -14 -1 -39 -8 -17 -17 -31 -21 -31 -10 0 -48 -42
-48 -52 0 -5 10 -2 22 6 12 9 28 16 34 16 17 0 4 -49 -16 -60 -10 -5 -20 -21
-22 -35 -5 -21 -2 -25 13 -20 14 5 19 1 19 -14 0 -11 11 -31 25 -43 21 -19 24
-29 18 -61 -5 -35 -7 -37 -44 -37 -28 0 -39 -5 -44 -19 -9 -29 -32 -44 -65
-43 -30 1 -42 -20 -20 -33 6 -3 10 -17 10 -30 0 -18 -4 -23 -15 -19 -11 5 -13
2 -8 -11 4 -13 -2 -25 -23 -43 l-29 -24 33 6 c31 5 32 5 21 -17 -17 -32 -18
-32 -34 -11 -13 18 -14 17 -16 -18 -1 -21 -2 -43 -3 -50 -1 -6 11 -13 27 -15
19 -3 27 1 27 12 0 8 5 15 10 15 6 0 10 -5 10 -11 0 -5 4 -8 9 -5 14 9 29 -16
33 -54 2 -27 7 -35 21 -33 15 1 17 -4 12 -24 -7 -30 13 -62 26 -41 6 9 9 9 9
1 0 -6 -14 -25 -31 -42 -17 -17 -25 -31 -18 -31 7 0 10 -2 8 -4 -2 -2 -24 -1
-48 4 -50 9 -71 4 -71 -16 0 -8 -4 -14 -10 -14 -15 0 -12 -26 5 -40 12 -10 18
-10 29 -1 21 18 55 -5 48 -32 -3 -14 -1 -18 6 -13 8 5 10 2 6 -8 -3 -9 -9 -14
-13 -12 -3 2 -16 0 -29 -5 -28 -11 -20 -29 14 -29 17 0 24 -6 24 -19 0 -27 18
-38 78 -45 29 -3 61 -11 71 -18 15 -9 23 -9 35 1 13 11 16 11 16 -3 0 -9 7
-16 15 -16 12 0 15 15 15 74 0 76 -10 93 -44 80 -15 -6 -22 16 -30 91 -2 17
-9 29 -16 27 -6 -1 -9 2 -6 7 4 5 2 12 -4 16 -5 3 -10 1 -10 -4 0 -6 -7 -11
-15 -11 -18 0 -20 43 -2 57 6 6 24 10 39 9 24 -1 26 1 21 25 -4 23 0 28 34 42
21 9 32 16 24 16 -13 1 -11 23 5 65 4 9 3 16 -2 15 -5 -1 -17 1 -27 6 -10 4
-23 2 -32 -5 -8 -6 -19 -9 -26 -5 -8 6 -8 2 0 -13 14 -26 14 -45 0 -37 -6 4
-8 9 -5 12 2 2 -5 14 -16 25 -12 12 -18 28 -15 39 3 10 1 16 -4 13 -5 -3 -12
2 -15 11 -4 9 -13 14 -20 11 -8 -3 -14 1 -14 10 0 8 4 13 9 10 4 -3 16 3 26
14 10 11 24 20 32 20 7 0 13 7 13 15 0 8 5 15 11 15 6 0 9 -6 6 -13 -3 -8 3
-14 15 -14 18 -2 19 2 13 34 -4 23 -3 33 4 28 6 -3 11 -2 11 4 0 5 -6 12 -12
14 -20 8 10 26 33 20 10 -3 19 0 19 6 0 6 -4 11 -8 11 -5 0 -7 12 -5 28 14
106 14 123 3 137 -9 11 -9 15 -1 15 7 0 11 28 11 83 0 102 -5 121 -37 138 -22
12 -27 11 -38 -4 -15 -21 -25 -22 -25 -2 0 7 8 19 18 24 15 10 15 11 -6 17
-27 8 -25 25 4 31 30 7 58 11 72 12 16 1 18 231 1 231 -8 0 -10 -14 -6 -40z
m-43 -646 c0 -8 5 -14 12 -14 6 0 8 -3 4 -7 -4 -5 -14 1 -22 11 -16 23 -19 40
-4 31 6 -3 10 -13 10 -21z m-17 -34 c3 -11 1 -18 -4 -14 -5 3 -9 12 -9 20 0
20 7 17 13 -6z m-23 0 c0 -5 -2 -10 -4 -10 -3 0 -8 5 -11 10 -3 6 -1 10 4 10
6 0 11 -4 11 -10z m-40 -94 c0 -19 -14 -28 -34 -20 -25 10 -19 34 9 34 15 0
25 -6 25 -14z m104 -163 c4 -9 1 -20 -6 -25 -21 -12 -31 -9 -24 8 3 9 6 20 6
25 0 15 17 10 24 -8z m-87 -23 c-2 -23 -5 -26 -22 -20 -11 4 -21 16 -23 27 -2
16 3 21 22 21 21 0 25 -5 23 -28z m43 -60 c0 -5 -7 -10 -15 -10 -8 0 -15 5
-15 10 0 6 7 10 15 10 8 0 15 -4 15 -10z m-83 -162 c-3 -8 -6 -5 -6 6 -1 11 2
17 5 13 3 -3 4 -12 1 -19z m-10 -55 c-15 -16 -17 -16 -17 -1 0 9 6 18 13 21
20 7 22 -2 4 -20z m71 -50 c7 -12 8 -24 3 -27 -5 -3 -12 1 -15 10 -8 20 -26 8
-26 -17 0 -26 -17 -24 -26 3 -4 15 -1 25 12 35 9 7 14 16 10 20 -4 5 -18 -4
-31 -19 -30 -35 -41 -36 -18 -2 32 49 64 48 91 -3z m-68 -37 c0 -3 -4 -8 -10
-11 -5 -3 -10 -1 -10 4 0 6 5 11 10 11 6 0 10 -2 10 -4z"/>
<path d="M1570 2685 c0 -8 7 -15 16 -15 14 0 14 3 4 15 -7 8 -14 15 -16 15 -2
0 -4 -7 -4 -15z"/>
<path d="M1246 2649 c-10 -52 -7 -78 12 -97 21 -23 39 -50 51 -78 13 -31 35
-35 78 -18 21 9 40 18 42 20 8 7 -83 100 -115 117 -25 13 -34 24 -34 42 0 24
9 29 38 26 6 -1 12 3 12 9 0 5 -17 10 -39 10 -35 0 -39 -3 -45 -31z"/>
<path d="M1540 2446 c0 -9 5 -16 10 -16 6 0 10 4 10 9 0 6 -4 13 -10 16 -5 3
-10 -1 -10 -9z"/>
<path d="M3784 2425 c-8 -31 -1 -40 23 -31 14 6 15 9 4 16 -8 4 -11 15 -8 24
4 9 2 16 -3 16 -5 0 -12 -11 -16 -25z"/>
<path d="M3804 2337 c-8 -21 -3 -29 13 -19 8 5 9 13 3 22 -7 12 -10 12 -16 -3z"/>
<path d="M3800 2261 c0 -5 5 -13 10 -16 6 -3 10 -2 10 4 0 5 -4 13 -10 16 -5
3 -10 2 -10 -4z"/>
<path d="M3580 2218 c0 -15 5 -30 10 -33 13 -8 13 25 0 45 -8 12 -10 9 -10
-12z"/>
<path d="M3527 2115 c-9 -19 -15 -35 -12 -35 7 0 37 61 33 66 -3 2 -12 -12
-21 -31z"/>
<path d="M3642 2078 c-15 -15 -16 -55 -1 -64 11 -7 29 12 29 31 0 6 -5 3 -10
-5 -8 -13 -10 -13 -10 2 0 9 5 20 10 23 12 7 13 25 2 25 -4 0 -13 -5 -20 -12z"/>
<path d="M3489 2053 c-13 -16 -12 -17 4 -4 16 13 21 21 13 21 -2 0 -10 -8 -17
-17z"/>
<path d="M3582 2022 c-2 -38 -36 -105 -47 -94 -5 4 -5 2 -2 -4 8 -14 -12 -75
-27 -87 -7 -6 -6 -7 3 -5 17 5 21 11 56 94 17 40 25 73 22 95 l-4 34 -1 -33z"/>
<path d="M3688 2043 c7 -3 16 -2 19 1 4 3 -2 6 -13 5 -11 0 -14 -3 -6 -6z"/>
<path d="M3456 1998 c-19 -46 -30 -84 -22 -77 9 9 46 109 40 109 -3 0 -11 -15
-18 -32z"/>
<path d="M3395 2010 c-3 -6 1 -7 9 -4 18 7 21 14 7 14 -6 0 -13 -4 -16 -10z"/>
<path d="M3640 1919 c0 -5 5 -7 10 -4 6 3 10 8 10 11 0 2 -4 4 -10 4 -5 0 -10
-5 -10 -11z"/>
<path d="M3351 1874 c0 -11 3 -14 6 -6 3 7 2 16 -1 19 -3 4 -6 -2 -5 -13z"/>
<path d="M3992 1762 c-1 -9 -9 -11 -22 -7 -19 6 -19 6 0 -36 10 -24 16 -48 13
-54 -4 -6 -1 -5 6 1 8 7 11 30 8 60 -2 27 -4 43 -5 36z"/>
<path d="M3905 1741 c-3 -5 -1 -12 5 -16 5 -3 10 1 10 9 0 18 -6 21 -15 7z"/>
<path d="M3955 1690 c-3 -5 -1 -10 4 -10 6 0 11 5 11 10 0 6 -2 10 -4 10 -3 0
-8 -4 -11 -10z"/>
<path d="M3510 1487 c0 -7 -3 -22 -6 -34 -5 -19 -2 -23 17 -23 13 0 32 -7 42
-14 15 -12 16 -18 8 -34 -12 -22 -4 -55 10 -46 14 8 11 26 -3 18 -7 -4 -9 -3
-5 1 18 20 89 8 110 -19 6 -7 7 -4 4 6 -3 9 1 22 9 28 18 16 18 40 -1 40 -8 0
-15 7 -15 16 0 8 -4 13 -10 9 -15 -9 -60 6 -60 21 0 8 -3 13 -7 12 -5 -1 -21
5 -38 12 -42 18 -55 20 -55 7z"/>
<path d="M3346 1481 c-3 -5 3 -20 14 -32 14 -17 19 -20 20 -9 0 13 1 13 10 0
5 -8 10 -10 10 -5 0 15 -29 55 -40 55 -5 0 -11 -4 -14 -9z"/>
<path d="M3465 1420 c-3 -5 -1 -10 4 -10 6 0 11 5 11 10 0 6 -2 10 -4 10 -3 0
-8 -4 -11 -10z"/>
<path d="M3912 1368 c-7 -7 -12 -27 -12 -45 0 -32 -16 -41 -32 -18 -4 6 -8 -1
-8 -14 0 -18 4 -22 19 -18 11 3 29 -2 41 -10 32 -22 48 -2 26 31 -20 31 -20
36 -1 36 9 0 15 9 15 22 0 17 -3 19 -12 10 -17 -17 -29 -15 -22 3 7 18 2 19
-14 3z"/>
<path d="M3867 1363 c-4 -3 -7 -15 -7 -26 0 -25 13 -14 15 13 2 22 1 23 -8 13z"/>
<path d="M3866 1131 c-7 -10 22 -37 30 -28 9 8 -3 37 -15 37 -5 0 -12 -4 -15
-9z"/>
<path d="M3906 1103 c-9 -21 -8 -23 10 -16 9 3 20 0 25 -8 7 -11 9 -9 9 7 0
26 -36 39 -44 17z"/>
<path d="M3683 873 c-18 -7 -16 -30 2 -30 8 0 15 9 15 19 0 10 -1 18 -2 17 -2
0 -9 -3 -15 -6z"/>
<path d="M3641 674 c0 -11 3 -14 6 -6 3 7 2 16 -1 19 -3 4 -6 -2 -5 -13z"/>
<path d="M3666 657 c3 -10 9 -15 12 -12 3 3 0 11 -7 18 -10 9 -11 8 -5 -6z"/>
<path d="M3586 623 c-11 -11 -6 -23 9 -23 8 0 15 4 15 9 0 13 -16 22 -24 14z"/>
<path d="M3560 560 c0 -5 5 -10 11 -10 5 0 7 5 4 10 -3 6 -8 10 -11 10 -2 0
-4 -4 -4 -10z"/>
<path d="M3625 560 c-4 -6 -11 -8 -16 -5 -5 4 -4 -5 3 -19 6 -14 14 -26 17
-26 13 1 44 30 38 36 -4 4 -13 1 -22 -6 -10 -8 -15 -9 -15 -1 0 6 5 11 10 11
6 0 10 5 10 10 0 13 -17 13 -25 0z"/>
<path d="M3555 510 c-9 -15 -1 -23 21 -18 15 3 16 4 1 16 -11 9 -17 10 -22 2z"/>
<path d="M3626 485 c-9 -26 -7 -32 5 -12 6 10 9 21 6 23 -2 3 -7 -2 -11 -11z"/>
<path d="M710 477 l-25 -11 28 -4 c16 -2 34 3 43 12 14 15 14 16 -3 15 -10 0
-29 -5 -43 -12z"/>
<path d="M3652 470 c0 -14 2 -19 5 -12 2 6 2 18 0 25 -3 6 -5 1 -5 -13z"/>
<path d="M3590 469 c0 -5 5 -7 10 -4 6 3 10 8 10 11 0 2 -4 4 -10 4 -5 0 -10
-5 -10 -11z"/>
<path d="M3560 416 c0 -9 5 -16 10 -16 6 0 10 4 10 9 0 6 -4 13 -10 16 -5 3
-10 -1 -10 -9z"/>
<path d="M3670 404 c0 -8 -5 -14 -11 -14 -5 0 -7 5 -4 10 3 6 4 10 1 10 -5 0
-46 -64 -46 -72 0 -16 92 -36 263 -58 43 -5 89 -13 103 -16 23 -6 24 -4 24 45
0 57 8 52 -100 56 -136 5 -135 4 -122 17 25 25 12 35 -48 36 -45 0 -60 -3 -60
-14z"/>
<path d="M7 403 c-4 -3 -7 -96 -7 -205 l0 -198 139 0 c135 0 175 9 140 31 -22
13 64 95 120 114 25 9 80 19 122 22 66 5 79 3 95 -13 11 -11 39 -35 62 -54 24
-19 52 -50 63 -67 16 -26 27 -33 52 -33 22 0 36 7 45 21 12 19 11 20 -6 15
-26 -9 -87 25 -87 48 0 9 -15 25 -33 36 -17 11 -32 26 -32 33 0 17 -42 57 -59
57 -7 0 -9 -5 -5 -11 18 -30 -152 34 -185 69 -21 23 -33 26 -129 33 -137 10
-232 39 -256 80 -17 29 -27 35 -39 22z"/>
<path d="M3840 100 c0 -5 5 -10 10 -10 6 0 10 5 10 10 0 6 -4 10 -10 10 -5 0
-10 -4 -10 -10z"/>
<path d="M3880 81 c0 -6 7 -11 15 -11 7 0 18 -6 22 -12 8 -13 65 -48 77 -48
11 0 6 28 -6 33 -10 4 -10 6 0 6 6 1 12 6 12 11 0 7 -13 8 -34 5 -24 -5 -42
-2 -60 10 -16 10 -26 13 -26 6z"/>
</g>
</svg>
